#!OML:ASF H:\GeneralSubjects\Female5\Project 1\Capture day 1\Session 1\Female5.ASF
:FULLY-SPECIFIED
:DEGREES
762
root 0.423612 16.3523 2.42244 -167.266 4.70778 -180.578
lowerback 9.75694 0.444851 5.81888
upperback -9.59255 2.47747 1.21559
thorax -16.1789 0.842728 -2.54284
lowerneck -14.7467 7.10598 9.19462
upperneck 28.5882 12.3218 -7.81066
head 13.0905 6.2095 -2.41657
rclavicle -1.64494e-014 -4.21423e-014
rhumerus -56.1195 12.0871 -74.8861
rradius 34.5734
rwrist -13.3731
rhand -28.7338 -18.6642
rfingers 7.12502
rthumb -2.09459 -48.6337
lclavicle -1.64494e-014 -4.21423e-014
lhumerus -47.6667 0.432758 74.7355
lradius 30.8282
lwrist -5.95182
lhand -25.554 27.5994
lfingers 7.12502
lthumb 0.976498 57.5769
rfemur -10.0176 18.4361 23.9332
rtibia 5.55329
rfoot -17.4129 -12.8117
rtoes 7.67834
lfemur -33.7338 10.1416 -23.2104
ltibia 45.3627
lfoot -5.01505 -7.8478
ltoes -12.6945
763
root 0.313256 16.37 2.40457 -167.389 4.66876 -180.577
lowerback 9.69601 0.453473 5.57343
upperback -9.55853 2.43831 1.24188
thorax -16.1047 0.856329 -2.36417
lowerneck -14.5894 7.10505 9.30768
upperneck 28.517 12.3466 -7.93513
head 13.0488 6.22708 -2.48413
rclavicle 1.14301e-014 6.36111e-015
rhumerus -56.1797 12.0689 -75.1786
rradius 34.7146
rwrist -13.3268
rhand -28.7621 -18.581
rfingers 7.12502
rthumb -2.122 -48.5502
lclavicle 1.14301e-014 6.36111e-015
lhumerus -47.53 1.07069 74.0397
lradius 30.7393
lwrist -5.79504
lhand -25.2788 27.8677
lfingers 7.12502
lthumb 1.24228 57.8439
rfemur -9.41908 19.2627 23.5404
rtibia 4.89083
rfoot -17.6414 -13.9643
rtoes 5.11819
lfemur -33.0299 9.00845 -20.6364
ltibia 44.3012
lfoot -9.2643 -6.35808
ltoes -14.7731
764
root 0.199291 16.3859 2.38193 -167.518 4.67882 -180.659
lowerback 9.61168 0.533307 5.37559
upperback -9.54048 2.48884 1.16011
thorax -16.0215 0.896642 -2.35405
lowerneck -14.5513 6.99689 9.14668
upperneck 28.5703 12.1949 -7.75831
head 13.0198 6.17104 -2.41796
rclavicle -1.26725e-014 5.08889e-014
rhumerus -56.3042 11.9077 -75.4494
rradius 34.785
rwrist -13.284
rhand -28.6989 -18.5458
rfingers 7.12502
rthumb -2.06091 -48.5156
lclavicle -1.26725e-014 5.08889e-014
lhumerus -47.3773 1.47122 73.4343
lradius 30.6989
lwrist -5.53934
lhand -25.4405 28.0422
lfingers 7.12502
lthumb 1.08608 58.0191
rfemur -8.83899 20.3284 23.0407
rtibia 4.32208
rfoot -18.0778 -15.1693
rtoes 2.86468
lfemur -32.2274 8.22268 -18.3504
ltibia 43.2242
lfoot -13.1609 -3.46536
ltoes -20.7625
765
root 0.0771612 16.3972 2.35604 -167.69 4.6614 -180.645
lowerback 9.65066 0.538245 5.20126
upperback -9.56052 2.47686 1.19366
thorax -16.078 0.912741 -2.21796
lowerneck -14.5277 6.94904 8.91841
upperneck 28.6798 12.1558 -7.55167
head 13.0226 6.16266 -2.30776
rclavicle -1.83379e-014 3.89618e-014
rhumerus -56.4306 11.9737 -75.7494
rradius 34.7475
rwrist -13.0015
rhand -28.4579 -18.5923
rfingers 7.12502
rthumb -1.82811 -48.5643
lclavicle -1.83379e-014 3.89618e-014
lhumerus -47.5031 1.70094 73.0423
lradius 30.9289
lwrist -4.87704
lhand -26.5808 28.3088
lfingers 7.12502
lthumb -0.0152351 58.2886
rfemur -8.29376 21.3856 22.6607
rtibia 4.02082
rfoot -18.8364 -16
rtoes 2.4217
lfemur -30.9438 6.34359 -15.3831
ltibia 41.2613
lfoot -16.811 1.15542
ltoes -27.2861
766
root -0.055111 16.3978 2.32828 -167.882 4.61724 -180.55
lowerback 9.71127 0.541952 5.16609
upperback -9.58257 2.48733 1.21169
thorax -16.1462 0.921767 -2.18297
lowerneck -14.5909 6.97639 8.91504
upperneck 28.8597 12.2467 -7.53748
head 13.1187 6.21243 -2.28018
rclavicle -2.32578e-014 -4.77083e-015
rhumerus -56.6127 12.1179 -76.1969
rradius 34.7263
rwrist -13.0681
rhand -28.5295 -18.6972
rfingers 7.12502
rthumb -1.89729 -48.6685
lclavicle -2.32578e-014 -4.77083e-015
lhumerus -47.6714 2.00538 72.4767
lradius 31.2902
lwrist -4.19758
lhand -27.151 28.6318
lfingers 7.12502
lthumb -0.565931 58.6108
rfemur -7.83157 21.6516 22.3131
rtibia 3.86052
rfoot -19.3787 -15.9298
rtoes 3.45247
lfemur -29.5961 4.38367 -12.5692
ltibia 39.2756
lfoot -19.4674 4.85717
ltoes -28.9929
767
root -0.192174 16.3868 2.30255 -168.06 4.6181 -180.486
lowerback 9.68112 0.646132 5.24991
upperback -9.55137 2.60629 1.03958
thorax -16.0667 0.951707 -2.44883
lowerneck -14.7901 7.00639 9.12371
upperneck 29.0454 12.2442 -7.49832
head 13.2505 6.23498 -2.29005
rclavicle -1.00883e-014 -3.4191e-014
rhumerus -56.7151 11.7813 -76.6002
rradius 34.663
rwrist -13.2119
rhand -28.6746 -18.6932
rfingers 7.12502
rthumb -2.03748 -48.6633
lclavicle -1.00883e-014 -3.4191e-014
lhumerus -47.5916 1.941 71.8833
lradius 31.5796
lwrist -3.61408
lhand -27.5827 28.7337
lfingers 7.12502
lthumb -0.982906 58.7111
rfemur -7.5904 21.2179 21.8469
rtibia 3.90552
rfoot -19.5555 -15.3007
rtoes 4.23214
lfemur -28.227 2.45437 -9.98706
ltibia 37.2109
lfoot -21.8842 7.73767
ltoes -28.7938
768
root -0.339385 16.3745 2.26312 -168.452 4.78318 -180.411
lowerback 9.72527 0.77719 5.34447
upperback -9.43182 2.74606 0.857764
thorax -15.9213 0.985931 -2.73499
lowerneck -14.7554 6.98493 9.15268
upperneck 29.0221 12.1234 -7.28252
head 13.2053 6.2098 -2.23538
rclavicle 7.25564e-015 -1.03368e-014
rhumerus -56.7181 11.499 -76.9866
rradius 34.5065
rwrist -13.0745
rhand -28.5051 -18.6291
rfingers 7.12502
rthumb -1.87377 -48.6007
lclavicle 7.25564e-015 -1.03368e-014
lhumerus -47.5736 1.79445 71.416
lradius 31.766
lwrist -3.29785
lhand -28.5218 28.2759
lfingers 7.12502
lthumb -1.88987 58.2472
rfemur -7.27192 20.4153 21.3455
rtibia 4.17201
rfoot -19.3009 -14.4698
rtoes 3.46209
lfemur -26.296 0.468163 -7.55428
ltibia 34.7322
lfoot -23.8755 10.9373
ltoes -29.058
769
root -0.489219 16.3485 2.22761 -168.592 4.94237 -180.327
lowerback 9.57146 0.875799 5.24402
upperback -9.41408 2.83684 0.773405
thorax -15.7885 1.03671 -2.78732
lowerneck -14.6004 6.93495 9.07718
upperneck 28.9496 12.0192 -7.11443
head 13.1122 6.18277 -2.18363
rclavicle -4.37326e-015 -1.11319e-014
rhumerus -56.6055 11.3571 -77.1967
rradius 34.2706
rwrist -12.8776
rhand -28.5158 -18.5672
rfingers 7.12502
rthumb -1.88412 -48.5386
lclavicle -4.37326e-015 -1.11319e-014
lhumerus -47.7247 2.04918 70.8523
lradius 31.962
lwrist -3.7792
lhand -28.7003 28.0085
lfingers 7.12502
lthumb -2.06228 57.9783
rfemur -7.51038 19.375 20.7266
rtibia 4.85751
rfoot -18.6057 -13.6948
rtoes 0.512663
lfemur -24.5856 -2.3489 -4.73805
ltibia 32.0049
lfoot -25.2104 14.9016
ltoes -29.2924
770
root -0.648689 16.3142 2.19396 -168.733 5.15139 -180.294
lowerback 9.4697 0.891106 4.95566
upperback -9.40838 2.80681 0.815637
thorax -15.7275 1.06115 -2.56764
lowerneck -14.4538 7.05378 9.06659
upperneck 28.8862 12.2248 -7.13859
head 13.0775 6.27729 -2.15963
rclavicle 2.0276e-014 8.74653e-015
rhumerus -56.2899 11.5171 -77.3063
rradius 33.9366
rwrist -12.7817
rhand -28.65 -18.5691
rfingers 7.12502
rthumb -2.01372 -48.5394
lclavicle 2.0276e-014 8.74653e-015
lhumerus -48.1441 2.4113 70.3982
lradius 32.3026
lwrist -4.17027
lhand -28.2761 28.1968
lfingers 7.12502
lthumb -1.65262 58.1701
rfemur -8.04057 18.1115 19.9679
rtibia 5.96882
rfoot -18.2103 -12.1393
rtoes -0.0309793
lfemur -22.9472 -4.86352 -2.40562
ltibia 29.4946
lfoot -26.9038 15.5407
ltoes -23.8372
771
root -0.821299 16.2697 2.16229 -168.959 5.40486 -180.431
lowerback 9.53631 0.857502 4.45444
upperback -9.41106 2.6847 0.884901
thorax -15.8002 1.06228 -2.18472
lowerneck -14.2614 7.23271 8.91651
upperneck 28.7557 12.5073 -7.06364
head 12.995 6.4007 -2.06459
rclavicle 7.85199e-015 -2.62396e-014
rhumerus -56.0556 12.1617 -77.7312
rradius 33.6852
rwrist -12.7249
rhand -28.6562 -18.9088
rfingers 7.12502
rthumb -2.0197 -48.8789
lclavicle 7.85199e-015 -2.62396e-014
lhumerus -48.6817 2.68212 70.1237
lradius 32.5136
lwrist -4.07775
lhand -28.0541 28.1074
lfingers 7.12502
lthumb -1.43815 58.0823
rfemur -8.71869 16.7105 18.9437
rtibia 7.47691
rfoot -17.9688 -10.4079
rtoes -0.318836
lfemur -21.2098 -7.58199 -0.683723
ltibia 27.0385
lfoot -28.4112 15.7428
ltoes -26.431
772
root -1.00668 16.216 2.1284 -169.269 5.67949 -180.608
lowerback 9.67572 0.961785 4.12543
upperback -9.38135 2.74217 0.745026
thorax -15.8507 1.1066 -2.17434
lowerneck -14.2775 7.22651 8.93015
upperneck 28.707 12.4399 -6.9728
head 12.9652 6.37851 -2.0446
rclavicle -1.15295e-014 -7.95139e-016
rhumerus -56.0297 12.4523 -78.2706
rradius 33.5661
rwrist -12.5751
rhand -28.4958 -19.1283
rfingers 7.12502
rthumb -1.8648 -49.0999
lclavicle -1.15295e-014 -7.95139e-016
lhumerus -48.883 2.57373 69.8479
lradius 32.4326
lwrist -4.20469
lhand -27.4906 27.4636
lfingers 7.12502
lthumb -0.893962 57.4415
rfemur -9.42837 15.1159 17.8026
rtibia 9.25523
rfoot -17.6485 -8.518
rtoes 0.0917799
lfemur -19.3381 -10.4949 0.678217
ltibia 24.5748
lfoot -30.0252 16.4078
ltoes -27.6877
773
root -1.20156 16.1531 2.09131 -169.563 5.93703 -180.595
lowerback 9.75606 1.1269 4.06401
upperback -9.3299 2.91973 0.57115
thorax -15.8184 1.17645 -2.37619
lowerneck -14.4701 7.16867 9.39972
upperneck 28.6225 12.2593 -7.27536
head 13.0115 6.29511 -2.26287
rclavicle -1.08338e-014 -7.95139e-016
rhumerus -55.9631 12.3461 -78.557
rradius 33.5512
rwrist -12.7841
rhand -28.6552 -19.0084
rfingers 7.12502
rthumb -2.01869 -48.9786
lclavicle -1.08338e-014 -7.95139e-016
lhumerus -48.902 2.22937 69.5402
lradius 32.2363
lwrist -4.50112
lhand -26.8576 26.982
lfingers 7.12502
lthumb -0.282543 56.9616
rfemur -10.0906 13.4471 16.8363
rtibia 10.9433
rfoot -17.0222 -6.67066
rtoes 0.782868
lfemur -17.4325 -13.3209 2.01869
ltibia 22.1027
lfoot -31.8627 16.6325
ltoes -27.8337
774
root -1.40625 16.0809 2.05371 -169.837 6.18027 -180.466
lowerback 9.82631 1.24848 4.03368
upperback -9.28714 3.063 0.504647
thorax -15.7979 1.23726 -2.46719
lowerneck -14.4528 7.17466 9.09827
upperneck 28.8073 12.2325 -6.75856
head 13.018 6.32203 -2.01934
rclavicle -2.63887e-014 -2.94201e-014
rhumerus -55.7445 12.0801 -78.5343
rradius 33.5018
rwrist -12.8802
rhand -28.9946 -19.0827
rfingers 7.12502
rthumb -2.34652 -49.0496
lclavicle -2.63887e-014 -2.94201e-014
lhumerus -48.9758 2.02582 69.198
lradius 31.9665
lwrist -4.75403
lhand -27.327 27.1641
lfingers 7.12502
lthumb -0.735949 57.1426
rfemur -10.657 12.1313 15.9876
rtibia 12.4388
rfoot -16.5102 -5.07252
rtoes 1.25825
lfemur -15.5687 -16.0391 3.23815
ltibia 19.7105
lfoot -33.1833 16.7749
ltoes -27.7858
775
root -1.62287 15.9996 2.01465 -170.175 6.39107 -180.425
lowerback 9.949 1.30401 3.90161
upperback -9.23545 3.10196 0.470026
thorax -15.8132 1.2614 -2.44394
lowerneck -14.33 7.19789 8.94807
upperneck 28.726 12.2028 -6.47413
head 12.9223 6.32808 -1.89852
rclavicle -2.25124e-014 0
rhumerus -55.4771 11.9145 -78.5004
rradius 33.3653
rwrist -12.6188
rhand -28.7802 -19.0118
rfingers 7.12502
rthumb -2.13942 -48.9808
lclavicle -2.25124e-014 0
lhumerus -49.1536 2.08231 68.8011
lradius 31.7187
lwrist -5.01986
lhand -27.8291 27.6064
lfingers 7.12502
lthumb -1.22087 57.5826
rfemur -11.0633 11.2362 15.0147
rtibia 13.8335
rfoot -16.3504 -3.71935
rtoes 1.42574
lfemur -13.7467 -18.6879 3.98088
ltibia 17.515
lfoot -33.2099 18.1157
ltoes -28.1273
776
root -1.84921 15.9129 1.96967 -170.633 6.57391 -180.488
lowerback 10.1474 1.3551 3.6808
upperback -9.16421 3.11439 0.4203
thorax -15.8578 1.27884 -2.38462
lowerneck -14.1541 7.16711 9.03646
upperneck 28.4253 12.1228 -6.61939
head 12.7721 6.28123 -1.99381
rclavicle 2.23136e-014 1.19271e-014
rhumerus -55.3607 11.9792 -78.5817
rradius 33.4389
rwrist -12.8962
rhand -28.8132 -18.7216
rfingers 7.12502
rthumb -2.17129 -48.6903
lclavicle 2.23136e-014 1.19271e-014
lhumerus -49.4298 2.31791 68.38
lradius 31.5793
lwrist -5.43477
lhand -27.3534 27.7383
lfingers 7.12502
lthumb -0.761415 57.7167
rfemur -11.087 10.7679 13.8982
rtibia 14.8181
rfoot -16.4494 -2.81449
rtoes 1.56171
lfemur -11.9103 -21.0917 4.1217
ltibia 15.5836
lfoot -32.0232 20.1699
ltoes -28.7805
